<?xml version="1.0" standalone="no"?>
<!DOCTYPE svg PUBLIC "-//W3C//DTD SVG 20010904//EN"
 "http://www.w3.org/TR/2001/REC-SVG-20010904/DTD/svg10.dtd">
<svg version="1.0" xmlns="http://www.w3.org/2000/svg"
 width="1080.000000pt" height="1080.000000pt" viewBox="0 0 1080.000000 1080.000000"
 preserveAspectRatio="xMidYMid meet">
<metadata>
Created by potrace 1.11, written by Peter Selinger 2001-2013
</metadata>
<g transform="translate(0.000000,1080.000000) scale(0.100000,-0.100000)"
fill="#000000" stroke="none">
<path d="M5886 10389 c-96 -9 -320 -44 -335 -53 -4 -3 -54 -9 -111 -15 -376
-39 -409 -45 -635 -111 -44 -12 -222 -81 -327 -127 -172 -73 -546 -296 -548
-325 0 -5 -6 -8 -14 -8 -8 0 -21 -8 -28 -18 -7 -9 -31 -30 -53 -47 -58 -43
-270 -258 -301 -305 -15 -22 -30 -40 -34 -40 -5 0 -32 -37 -61 -82 -29 -46
-60 -91 -69 -101 -9 -9 -23 -30 -31 -45 -7 -15 -21 -39 -31 -54 -30 -45 -134
-251 -163 -325 -15 -37 -33 -81 -40 -98 -7 -16 -18 -48 -25 -70 -6 -22 -15
-49 -20 -60 -5 -11 -16 -45 -25 -75 -9 -30 -20 -64 -25 -75 -5 -11 -11 -33
-14 -50 -3 -16 -13 -61 -21 -100 -63 -285 -114 -632 -135 -920 -6 -77 -19
-232 -30 -345 -10 -113 -26 -281 -34 -375 -16 -173 -18 -195 -36 -390 -9 -98
-20 -190 -61 -505 -17 -136 -175 -610 -256 -770 -13 -25 -23 -52 -23 -61 0
-30 -40 -69 -71 -69 -16 0 -29 -4 -29 -10 0 -5 -7 -10 -15 -10 -9 0 -34 -18
-56 -40 -22 -22 -43 -40 -45 -40 -3 0 -22 -14 -44 -31 -44 -36 -43 -36 -319
-44 -220 -7 -464 -36 -490 -59 -9 -7 -33 -16 -53 -20 -47 -9 -109 -61 -172
-146 -56 -76 -201 -367 -302 -605 -32 -77 -47 -101 -63 -103 -12 -2 -21 -8
-21 -13 0 -5 -13 -9 -29 -9 -36 0 -161 -56 -161 -72 0 -5 -4 -8 -9 -8 -15 0
-71 -53 -71 -67 0 -7 -4 -13 -8 -13 -12 0 -72 -125 -72 -149 0 -11 -4 -23 -10
-26 -5 -3 -10 -25 -10 -49 0 -24 -4 -56 -9 -72 -6 -16 -12 -60 -15 -99 -3 -38
-10 -104 -15 -145 -6 -41 -15 -120 -20 -175 -6 -55 -14 -122 -20 -150 -5 -27
-7 -53 -4 -58 5 -9 -22 -100 -41 -137 -8 -14 -19 -43 -26 -65 -7 -22 -17 -46
-23 -53 -18 -23 -20 -231 -2 -297 25 -97 137 -322 166 -333 5 -2 9 -12 9 -23
0 -10 5 -19 10 -19 6 0 10 -6 10 -13 0 -7 9 -23 20 -35 11 -12 20 -24 20 -28
0 -4 26 -41 58 -83 32 -42 64 -88 71 -102 7 -15 33 -51 57 -80 24 -30 51 -67
60 -84 8 -16 26 -45 40 -64 24 -34 31 -79 16 -97 -5 -5 -15 -25 -22 -44 -7
-19 -20 -53 -30 -75 -38 -82 -70 -163 -70 -174 0 -6 -3 -11 -8 -11 -4 0 -12
-15 -19 -32 -23 -67 -78 -203 -83 -208 -3 -3 -12 -25 -20 -50 -7 -25 -26 -72
-41 -105 -14 -33 -46 -112 -69 -175 -24 -63 -49 -127 -57 -142 l-14 -28 461 0
460 0 1 63 c1 34 1 100 0 146 l-1 84 20 -23 c11 -13 20 -27 20 -31 0 -11 111
-174 144 -211 13 -16 31 -28 40 -28 18 0 22 15 5 25 -15 10 -110 141 -142 197
-15 26 -34 54 -43 62 -31 32 7 15 45 -19 21 -19 46 -35 55 -35 10 0 15 -4 12
-9 -4 -5 15 -17 41 -27 71 -27 90 -38 133 -78 22 -20 42 -36 45 -36 7 0 62
-38 91 -63 15 -12 33 -17 55 -15 29 3 31 5 14 13 -11 5 -53 31 -94 59 -40 28
-85 59 -99 68 l-25 17 24 5 c13 3 35 7 49 10 126 25 267 82 390 157 19 12 49
29 65 38 17 9 44 25 60 36 17 12 53 32 80 45 28 14 59 33 69 42 11 10 25 18
31 18 7 0 20 9 29 19 10 11 29 22 43 26 14 3 37 14 52 24 14 9 46 31 71 48 25
16 79 48 120 70 89 48 208 120 232 140 13 11 18 12 24 2 4 -7 2 -15 -4 -17 -7
-2 -12 -11 -12 -20 0 -18 -509 -529 -579 -581 -55 -42 -245 -168 -292 -196
l-34 -19 28 -4 c16 -2 36 3 45 11 10 8 31 22 49 31 29 14 182 121 235 164 12
9 71 65 132 124 169 162 189 181 221 208 40 33 192 205 230 259 41 58 65 81
86 81 10 0 21 5 24 10 3 6 15 10 26 10 10 0 19 4 19 10 0 5 7 7 15 4 8 -4 22
-1 30 6 8 6 19 9 24 6 10 -7 -113 -218 -130 -224 -5 -2 -9 -12 -9 -22 0 -10
-3 -20 -8 -22 -4 -2 -31 -39 -60 -82 -65 -95 -95 -139 -102 -146 -3 -3 -18
-25 -34 -50 -16 -25 -55 -75 -85 -111 -31 -36 -90 -107 -131 -157 -41 -50 -78
-92 -82 -92 -5 0 -8 -4 -8 -10 0 -24 40 -7 66 28 15 20 32 39 36 40 5 2 38 41
73 85 35 45 78 98 94 117 53 60 245 345 359 530 28 45 29 19 2 -58 -11 -31
-39 -113 -61 -182 -23 -69 -45 -134 -49 -145 -9 -23 -36 -116 -46 -158 -3 -15
-10 -30 -15 -33 -5 -3 -9 -20 -9 -38 0 -17 -4 -36 -10 -42 -5 -5 -18 -34 -28
-64 -11 -30 -23 -63 -27 -72 -6 -15 -2 -18 23 -18 27 0 30 4 42 48 12 46 17
62 38 112 5 14 16 51 23 83 7 31 15 57 19 57 8 0 17 35 27 105 5 33 7 36 14
20 6 -15 8 -9 8 23 1 23 6 42 11 42 6 0 10 11 10 25 0 14 4 33 9 43 5 9 19 51
31 92 12 41 28 91 35 110 8 19 17 51 20 70 4 19 14 55 21 80 l15 45 92 30 c98
32 171 67 199 96 10 10 23 21 31 26 7 4 19 18 27 29 8 12 41 56 73 97 109 142
117 178 147 667 4 74 13 158 20 185 6 28 14 65 17 83 3 18 9 35 14 38 5 3 9
16 9 30 0 13 3 24 8 24 4 -1 47 -80 96 -178 49 -97 103 -204 120 -237 18 -33
53 -116 80 -185 26 -69 52 -134 56 -145 8 -18 39 -96 60 -150 4 -11 18 -42 30
-70 12 -27 26 -59 30 -70 3 -11 16 -40 27 -65 11 -25 30 -70 43 -100 13 -30
33 -79 46 -108 13 -28 36 -80 50 -115 15 -34 33 -71 40 -82 8 -11 14 -25 14
-32 0 -7 11 -36 24 -66 20 -42 23 -60 16 -88 -15 -62 -29 -101 -43 -123 -8
-11 -22 -45 -31 -73 -10 -29 -22 -53 -27 -53 -5 0 -9 -5 -9 -11 0 -17 -61
-140 -92 -186 -15 -23 -28 -46 -28 -51 0 -5 -6 -15 -14 -21 -8 -6 -16 -21 -19
-31 -8 -31 29 -25 46 8 8 15 33 59 56 99 22 40 41 77 41 82 0 5 3 11 8 13 11
5 100 199 124 271 6 20 17 37 23 37 5 0 25 -31 42 -68 18 -37 39 -78 47 -92 7
-14 37 -72 66 -130 103 -206 122 -240 137 -240 12 0 14 7 8 27 -3 15 -10 30
-14 33 -5 3 -24 37 -43 75 -42 86 -97 193 -111 220 -74 139 -109 227 -104 259
7 46 36 149 47 168 6 10 10 27 10 38 0 34 30 37 53 6 11 -15 39 -48 63 -73 24
-25 44 -47 44 -49 0 -10 242 -270 365 -394 20 -19 40 -53 46 -75 52 -195 65
-230 88 -233 22 -4 29 16 12 34 -9 9 -38 104 -48 159 l-6 29 29 -26 c75 -68
171 -155 192 -176 12 -12 35 -22 50 -22 25 0 20 7 -53 75 -108 101 -146 135
-152 135 -10 0 -374 370 -454 460 -97 110 -176 206 -189 229 -6 13 -6 34 0 63
62 281 65 300 94 543 26 225 38 470 37 775 0 162 3 290 7 284 7 -12 89 -41
181 -65 30 -7 55 -20 58 -29 7 -20 30 -74 54 -126 10 -22 19 -46 19 -52 0 -7
5 -20 10 -30 15 -24 70 -163 70 -174 0 -5 15 -46 34 -91 18 -45 39 -100 46
-122 7 -22 21 -58 31 -79 11 -22 19 -47 19 -56 0 -9 4 -20 8 -26 5 -5 16 -27
24 -49 9 -22 27 -65 41 -95 33 -74 102 -246 117 -295 7 -22 19 -49 26 -60 8
-11 14 -25 14 -32 0 -7 9 -32 19 -56 11 -23 23 -53 26 -67 8 -26 25 -68 56
-135 10 -22 25 -62 34 -90 9 -27 22 -63 29 -80 8 -16 26 -61 41 -100 15 -38
34 -83 41 -100 7 -16 20 -52 29 -80 9 -27 20 -54 24 -60 4 -5 13 -28 20 -50 7
-22 19 -53 26 -70 8 -16 37 -90 66 -163 42 -103 57 -132 72 -132 14 0 17 5 12
23 -4 12 -11 26 -16 31 -5 6 -9 16 -9 23 0 7 -9 35 -21 61 -12 26 -26 58 -31
72 -6 14 -14 32 -18 40 -26 54 -12 139 45 275 7 17 25 66 40 110 15 44 33 94
40 110 7 17 25 62 39 100 15 39 33 84 41 100 8 17 17 42 21 57 3 15 12 32 20
39 8 6 14 20 14 30 0 10 5 21 10 24 6 3 10 15 10 26 0 11 5 17 10 14 6 -4 10
5 10 19 0 14 4 26 9 26 10 0 23 31 26 60 1 8 12 38 24 65 12 28 32 75 43 105
12 30 38 82 60 116 21 34 38 65 38 70 0 5 34 77 75 159 41 83 75 155 75 162 0
6 3 13 8 15 10 4 52 87 52 104 0 8 5 14 10 14 6 0 15 11 20 25 5 14 19 44 30
67 12 24 37 81 57 128 19 47 53 123 75 170 46 99 50 107 79 180 12 30 30 74
40 97 11 24 19 47 19 53 0 6 4 18 9 28 16 31 29 67 41 107 11 39 15 49 40 110
l12 30 10 -25 c6 -15 5 -66 -3 -139 -8 -79 -9 -178 -4 -315 4 -111 9 -239 11
-286 1 -47 7 -134 14 -195 6 -60 14 -156 17 -212 2 -57 9 -103 13 -103 5 0 11
-15 14 -33 7 -46 23 -168 36 -267 7 -47 20 -128 31 -180 30 -150 34 -140 -83
-253 -57 -55 -134 -130 -173 -167 -38 -37 -92 -86 -120 -107 -27 -22 -67 -57
-88 -77 -22 -20 -55 -49 -75 -64 -21 -15 -41 -32 -45 -39 -4 -7 -36 -34 -70
-60 -34 -26 -64 -50 -67 -53 -3 -3 -18 -16 -35 -29 -16 -12 -48 -39 -70 -60
-22 -20 -58 -50 -80 -67 -61 -44 -62 -46 -114 -94 -57 -53 -121 -135 -121
-156 0 -28 35 -13 58 25 33 53 140 163 152 156 6 -4 -1 -20 -15 -39 -14 -18
-25 -38 -25 -45 0 -6 -6 -22 -14 -34 -8 -12 -24 -46 -35 -75 -20 -49 -20 -52
-3 -52 13 0 27 18 44 58 115 251 111 246 241 349 31 25 57 50 57 54 0 5 5 9
11 9 11 0 151 118 157 133 2 4 19 18 37 30 18 12 67 54 110 92 43 39 100 90
128 115 28 25 79 73 113 106 35 34 76 72 92 85 15 14 31 33 35 43 19 50 48
-18 76 -179 11 -64 80 -298 153 -520 18 -55 19 -70 9 -207 -6 -82 -11 -153
-11 -158 0 -6 9 -10 20 -10 19 0 20 7 20 125 0 69 4 125 8 125 7 0 47 -81 93
-192 l24 -58 52 0 52 0 -20 68 c-18 61 -33 130 -74 337 -7 39 -18 94 -24 123
-16 78 -14 108 13 171 54 127 126 380 207 726 16 71 30 139 35 175 3 19 9 44
13 55 5 11 14 47 20 80 7 33 19 96 27 140 66 336 53 295 147 495 24 52 54 123
67 158 35 95 59 82 134 -73 49 -102 53 -113 66 -187 6 -29 14 -73 19 -98 9
-44 -1 -86 -18 -76 -8 5 -21 -30 -42 -114 -10 -43 -52 -172 -68 -215 -5 -11
-14 -38 -20 -60 -7 -22 -16 -49 -21 -60 -4 -11 -13 -40 -20 -65 -7 -25 -21
-65 -32 -90 -11 -25 -24 -54 -28 -65 -5 -11 -17 -41 -29 -67 -12 -26 -21 -52
-21 -57 0 -6 -8 -25 -19 -43 -10 -18 -29 -60 -42 -93 -13 -33 -46 -100 -73
-150 -27 -49 -60 -110 -73 -134 -13 -24 -37 -63 -53 -87 -17 -23 -30 -45 -30
-49 0 -3 -18 -30 -40 -60 -39 -53 -48 -75 -32 -75 10 0 52 43 52 53 0 3 21 40
48 80 76 119 192 339 192 365 0 6 4 12 8 12 5 0 22 30 37 68 16 37 41 95 56
129 16 34 31 74 35 88 3 14 10 28 15 31 5 3 9 13 9 22 0 9 6 28 13 42 7 14 32
86 56 160 24 74 48 143 52 152 5 10 9 25 9 33 0 8 4 23 9 33 10 19 49 148 53
175 6 38 23 20 31 -33 9 -58 -7 -374 -24 -470 -5 -30 -16 -107 -25 -170 -9
-63 -21 -140 -25 -170 -5 -30 -13 -84 -18 -120 -10 -65 -21 -133 -42 -252 -18
-104 -53 -311 -63 -373 -2 -16 -9 -48 -15 -70 -6 -22 -16 -62 -21 -90 -5 -27
-19 -93 -31 -145 -33 -149 -34 -160 -15 -160 9 0 16 2 16 3 0 2 9 48 21 103
11 54 25 122 30 149 4 28 15 81 24 120 8 38 15 87 15 108 0 23 4 36 10 32 6
-4 10 -91 10 -229 0 -123 3 -238 6 -255 l7 -31 104 0 104 0 -6 58 c-3 31 -10
73 -15 92 -20 82 -32 182 -28 236 3 33 3 49 1 37 -3 -13 -9 -23 -14 -23 -13 0
-11 157 3 179 9 15 7 24 -11 49 -23 33 -47 185 -36 229 3 12 -2 40 -11 63 -12
29 -15 57 -10 98 3 31 8 84 11 117 4 33 9 67 12 75 2 8 7 40 9 70 2 30 8 68
13 85 16 53 22 100 35 325 14 228 7 478 -15 565 -27 102 -35 124 -66 190 -40
82 -49 99 -87 154 -25 35 -27 44 -17 71 9 28 5 42 -48 148 -61 122 -72 154
-91 262 -6 36 -15 88 -20 115 -25 140 -54 767 -48 1014 5 162 9 196 31 266 14
44 32 103 41 130 8 28 26 84 39 125 14 41 31 95 38 120 7 25 21 62 31 82 10
21 18 45 18 56 0 16 45 69 82 97 12 9 92 75 157 130 52 43 190 190 260 275 11
14 27 32 34 40 59 65 207 279 207 300 0 5 3 10 8 12 16 7 72 137 86 203 15 65
56 340 78 515 14 109 2 597 -16 690 -23 119 -36 191 -47 255 -9 57 -40 181
-59 235 -4 14 -16 52 -25 85 -41 143 -91 288 -116 337 -5 10 -9 22 -9 28 0 11
-23 64 -70 165 -15 33 -31 70 -35 83 -3 12 -34 73 -67 135 -33 62 -73 137 -89
167 -16 30 -33 62 -39 70 -18 28 -90 145 -106 175 -10 17 -34 53 -56 82 -21
29 -38 56 -38 61 0 5 -9 17 -20 27 -11 10 -20 22 -20 27 0 5 -13 23 -30 41
-16 18 -30 37 -30 44 0 6 -3 13 -8 15 -4 2 -17 16 -30 32 -12 16 -46 54 -75
85 -28 31 -63 70 -77 86 -14 17 -46 48 -71 70 -25 22 -78 69 -119 105 -40 36
-102 85 -137 110 -35 25 -88 62 -116 83 -29 20 -61 42 -72 47 -11 6 -33 19
-50 30 -16 11 -37 23 -45 26 -8 4 -22 13 -30 20 -34 29 -338 183 -460 234 -30
12 -78 33 -106 46 -113 51 -363 106 -584 128 -178 17 -269 18 -424 5z m-1126
-243 c0 -12 -10 -19 -40 -31 -3 -1 -20 -6 -38 -10 -18 -4 -35 -12 -38 -16 -3
-5 -16 -9 -30 -9 -14 0 -27 -7 -30 -15 -4 -8 -14 -15 -24 -15 -10 0 -23 -7
-30 -15 -7 -8 -18 -15 -24 -15 -7 0 -30 -13 -53 -30 -22 -16 -67 -43 -99 -60
-32 -17 -77 -44 -99 -61 -22 -16 -58 -42 -80 -57 -22 -15 -44 -32 -50 -38 -19
-19 -103 -84 -111 -84 -3 0 -16 -10 -28 -23 -11 -12 -43 -40 -71 -62 -27 -22
-77 -69 -112 -105 -81 -85 -88 -93 -96 -113 -3 -9 -13 -17 -20 -17 -11 0 -77
-87 -77 -103 0 -3 11 -8 25 -11 14 -4 25 -11 25 -16 0 -5 -17 -34 -39 -64 -21
-31 -44 -69 -51 -86 -7 -16 -16 -30 -20 -30 -5 0 -13 -12 -19 -27 -6 -16 -22
-46 -36 -68 -13 -22 -27 -47 -32 -55 -4 -8 -11 -19 -15 -25 -23 -27 -68 -101
-68 -111 0 -6 -9 -19 -20 -29 -11 -10 -20 -26 -20 -35 0 -10 -7 -23 -15 -30
-8 -7 -15 -18 -15 -26 0 -7 -14 -28 -31 -45 l-32 -33 -18 23 c-13 16 -16 31
-12 53 5 23 3 29 -6 24 -7 -5 -10 -14 -7 -21 2 -7 -2 -16 -10 -19 -8 -3 -14
-14 -14 -24 0 -10 -9 -27 -20 -37 -11 -10 -20 -22 -20 -28 0 -5 -11 -31 -25
-59 -14 -27 -25 -58 -25 -69 0 -10 -4 -19 -10 -19 -5 0 -10 13 -10 29 0 17 5
33 10 36 6 3 10 17 10 31 0 14 9 44 20 66 11 23 20 48 20 55 0 7 4 21 9 31 13
24 35 75 67 157 15 39 36 82 46 97 10 14 18 29 18 32 0 11 152 251 161 254 5
2 9 8 9 14 0 6 14 27 30 48 17 21 30 40 30 43 0 3 12 19 28 35 48 51 112 125
112 130 0 17 239 232 304 273 23 15 50 36 60 48 11 12 31 27 45 34 39 20 70
39 121 73 25 17 70 43 100 58 30 15 91 47 135 71 44 24 88 44 98 44 9 1 17 6
17 11 0 6 7 10 15 10 8 0 40 11 71 25 32 14 64 23 73 20 9 -2 27 4 41 15 30
23 40 25 40 6z m2813 -276 c47 -33 89 -60 93 -60 3 0 25 -15 48 -32 22 -18 46
-36 51 -40 50 -37 240 -202 280 -244 82 -85 178 -194 212 -239 107 -143 169
-232 223 -325 8 -14 25 -39 38 -57 12 -17 22 -38 22 -46 0 -9 4 -17 9 -19 14
-5 53 -77 156 -288 53 -107 100 -203 106 -212 19 -36 89 -231 89 -250 0 -29
-16 -13 -40 40 -41 90 -45 97 -51 102 -3 3 -13 22 -22 43 -10 20 -21 37 -25
37 -5 0 -18 19 -30 43 -13 23 -40 67 -62 97 -21 30 -49 74 -60 97 -12 24 -33
51 -46 62 -13 10 -24 23 -24 29 0 6 -18 33 -40 61 -22 28 -40 55 -40 61 0 5
-4 10 -10 10 -13 0 -13 -12 0 -45 23 -61 -66 -21 -98 45 -7 15 -31 47 -52 71
-22 24 -40 48 -40 52 0 5 -20 33 -45 61 -25 29 -45 56 -45 60 0 4 -16 27 -35
50 -19 24 -35 48 -35 54 0 6 -11 23 -24 39 -13 15 -31 42 -39 60 -9 17 -30 46
-47 65 -32 35 -36 63 -8 63 9 0 39 -21 66 -47 46 -43 72 -59 72 -42 0 8 -103
125 -172 197 -32 32 -58 62 -58 65 -1 4 -21 23 -45 42 -25 19 -45 40 -45 47 0
6 -16 21 -35 33 -19 12 -35 27 -35 33 0 11 -138 147 -149 147 -4 0 -14 12 -23
28 -9 15 -35 41 -57 57 -22 17 -43 36 -45 43 -12 27 34 9 117 -48z m-3508
-510 c8 -12 -14 -48 -56 -94 -73 -80 -91 -103 -105 -128 -8 -16 -19 -28 -25
-28 -5 0 -12 -8 -16 -17 -3 -10 -13 -26 -22 -37 -15 -18 -15 -18 14 -13 17 3
40 8 51 12 34 11 37 -21 8 -94 -14 -36 -32 -75 -39 -87 -7 -11 -19 -41 -25
-65 -6 -24 -20 -62 -30 -84 -24 -53 -34 -78 -32 -87 1 -5 -2 -8 -8 -8 -5 0
-10 -7 -10 -15 0 -8 -7 -33 -16 -55 -13 -31 -21 -40 -40 -40 -13 0 -24 2 -24
4 0 9 30 86 50 129 18 39 20 51 10 57 -13 8 -60 -37 -60 -56 0 -12 -111 -119
-132 -127 -30 -11 -42 17 -29 70 20 84 71 184 162 318 46 68 67 107 63 120 -3
14 7 34 33 62 80 87 144 160 179 203 46 57 86 81 99 60z m3564 -221 c21 -17
52 -52 69 -78 17 -26 42 -53 56 -61 14 -7 26 -21 26 -30 0 -9 28 -44 62 -79
49 -49 59 -64 47 -72 -29 -18 -56 -9 -88 31 -17 22 -40 40 -50 40 -10 0 -24 7
-31 15 -7 8 -23 15 -36 15 -18 0 -23 -6 -26 -32 -2 -20 -9 -34 -19 -36 -31 -6
-136 114 -125 143 3 9 19 15 39 15 19 0 36 2 39 6 3 3 -1 26 -8 51 -17 55 -18
103 -3 103 5 0 27 -14 48 -31z m405 -10 c14 -11 26 -27 26 -35 0 -8 9 -22 20
-31 11 -10 20 -21 20 -26 0 -5 13 -26 29 -46 45 -57 84 -132 74 -142 -18 -18
-38 2 -98 94 -33 51 -65 97 -72 102 -19 17 -54 86 -48 96 9 14 20 11 49 -12z
m-4380 -78 c7 -10 -43 -91 -55 -91 -4 0 -10 -13 -14 -29 -3 -16 -17 -42 -31
-58 -13 -15 -39 -57 -56 -93 -17 -36 -35 -67 -39 -70 -4 -3 -12 -18 -18 -33
-9 -24 -14 -26 -31 -17 -29 15 -25 39 22 136 27 57 59 105 95 141 29 30 53 57
53 60 0 3 9 18 21 34 20 29 43 37 53 20z m4184 -48 c12 -18 27 -33 31 -33 12
0 51 -67 51 -86 0 -8 -9 -14 -20 -14 -11 0 -20 4 -20 9 0 8 -14 24 -82 99 -16
18 -28 39 -25 46 9 23 41 13 65 -21z m-2055 -56 c8 -32 12 -36 31 -31 27 6 44
-11 45 -46 0 -14 4 -59 9 -100 13 -112 -8 -163 -54 -132 -37 24 -96 291 -74
332 16 29 33 20 43 -23z m1140 -14 c65 -59 109 -125 100 -149 -10 -26 -62 -16
-93 17 -46 51 -60 69 -60 76 0 3 -12 21 -26 40 -26 35 -26 73 2 73 8 0 42 -26
77 -57z m-811 -10 c6 -16 14 -53 19 -83 4 -30 13 -56 18 -58 14 -5 15 -89 2
-97 -27 -16 -80 182 -66 243 7 29 13 28 27 -5z m-2087 -50 c11 -14 10 -22 -6
-42 -10 -13 -19 -29 -19 -36 0 -22 -40 -64 -55 -58 -22 8 -18 35 11 74 14 19
30 44 35 57 10 26 18 28 34 5z m130 -17 c-4 -11 -9 -34 -12 -51 -6 -35 -20
-55 -39 -55 -17 0 -8 84 13 117 18 28 48 20 38 -11z m621 21 c6 -16 -40 -130
-55 -135 -18 -6 -14 33 15 136 4 16 33 16 40 -1z m2343 -37 c45 -44 51 -60 21
-60 -25 0 -90 67 -83 86 8 21 17 18 62 -26z m-1948 -74 c-6 -22 -18 -81 -26
-131 -8 -49 -17 -101 -20 -115 -6 -30 -13 -141 -21 -351 -5 -105 -3 -171 4
-202 24 -93 211 -337 362 -473 123 -109 174 -151 226 -185 30 -20 68 -56 86
-80 67 -94 192 -231 268 -293 78 -65 123 -88 84 -43 -26 28 -83 111 -112 160
-36 62 -17 72 51 26 31 -21 87 -47 125 -59 89 -27 97 -32 192 -123 45 -43 84
-76 87 -73 5 4 -42 107 -114 248 -7 14 -13 35 -13 45 0 10 -6 27 -13 38 -8 11
-24 47 -36 80 -13 33 -36 92 -51 130 -55 138 -82 242 -100 390 -6 50 -17 135
-25 190 -15 108 -27 259 -19 235 3 -8 9 -24 14 -35 5 -11 16 -42 25 -69 8 -26
24 -67 35 -90 10 -24 28 -65 39 -92 48 -120 75 -171 180 -328 36 -54 71 -106
76 -115 6 -8 15 -20 21 -26 6 -5 39 -46 75 -89 35 -44 119 -136 186 -205 132
-135 135 -144 60 -156 -23 -4 -53 -14 -66 -22 -37 -23 -7 -34 70 -25 92 11
144 1 169 -31 11 -14 29 -29 40 -32 11 -4 20 -13 20 -21 0 -15 -23 -17 -55 -5
-26 10 -134 -15 -157 -36 -42 -38 -2 -44 80 -13 33 13 76 20 119 20 59 0 70
-3 95 -26 30 -29 111 -85 230 -160 82 -52 91 -77 20 -56 -56 17 -131 15 -283
-8 -104 -16 -140 -18 -161 -9 -48 20 -48 58 0 60 15 1 0 5 -33 9 -51 6 -63 4
-80 -12 -19 -18 -19 -18 12 -18 35 0 66 -24 61 -49 -2 -11 -16 -17 -46 -19
-41 -3 -53 -14 -32 -27 18 -11 -7 -32 -44 -39 -45 -9 -65 -31 -35 -39 20 -5
20 -7 5 -22 -9 -9 -16 -20 -16 -25 0 -7 112 14 129 25 4 2 12 0 19 -4 9 -5 7
-20 -8 -59 -20 -52 -27 -146 -12 -156 4 -2 27 4 51 15 87 38 113 18 71 -56
-39 -70 -52 -84 -78 -87 -25 -3 -27 -7 -30 -52 -2 -27 2 -63 9 -79 10 -24 10
-32 1 -35 -29 -9 -7 -32 56 -56 37 -14 72 -26 78 -26 6 0 25 -7 41 -15 17 -9
66 -25 108 -36 68 -17 80 -18 99 -5 50 34 141 137 141 160 0 26 -37 15 -67
-20 -18 -21 -49 -53 -68 -71 -33 -32 -38 -34 -95 -30 -33 3 -77 12 -97 21 -21
9 -45 16 -55 16 -24 1 -59 31 -67 58 -21 66 -11 182 15 182 5 0 9 6 9 14 0 8
3 16 8 18 11 5 52 66 52 78 0 5 7 10 15 10 8 0 15 -5 15 -11 0 -5 4 -8 9 -5 5
3 11 -1 15 -9 8 -22 22 -18 50 12 22 23 26 25 31 10 4 -9 2 -39 -4 -67 -19
-87 -10 -102 31 -55 11 13 24 22 29 20 4 -3 5 23 3 57 -4 56 -3 60 7 33 16
-39 27 -47 65 -40 28 5 33 2 39 -22 5 -16 7 -32 6 -38 -1 -5 6 -2 17 8 18 16
20 16 33 1 17 -21 57 -36 79 -29 23 7 70 165 70 233 0 60 6 63 77 31 116 -52
192 -89 197 -97 3 -5 -7 -52 -21 -106 -14 -53 -23 -99 -19 -103 3 -4 44 31 91
78 84 83 104 99 106 82 1 -4 3 -24 6 -43 2 -19 5 -91 6 -160 2 -156 -4 -167
-128 -262 -142 -109 -232 -153 -338 -165 -83 -9 -51 -23 53 -23 74 0 170 15
221 35 30 12 28 -23 -7 -122 -19 -54 -52 -147 -73 -208 -22 -60 -54 -150 -72
-200 -18 -49 -35 -106 -38 -125 -6 -34 -40 -66 -111 -103 -14 -7 -34 -18 -45
-24 -60 -33 -224 -48 -322 -30 -59 10 -57 -11 5 -50 105 -68 123 -73 241 -73
60 0 112 -4 115 -9 8 -12 -124 -183 -199 -256 -69 -68 -236 -203 -277 -224
-15 -8 -36 -21 -45 -30 -10 -9 -36 -25 -58 -37 -56 -29 -89 -48 -95 -55 -3 -3
-18 -12 -35 -21 -16 -8 -64 -32 -105 -52 -41 -21 -120 -61 -175 -88 -55 -28
-114 -61 -132 -74 -17 -13 -36 -24 -42 -24 -12 0 -74 -33 -113 -61 -14 -11
-33 -19 -42 -19 -19 0 -20 -5 -6 -31 7 -12 8 -48 4 -96 -7 -72 -11 -82 -67
-167 -34 -50 -64 -93 -67 -96 -3 -3 -41 -50 -85 -105 -44 -55 -91 -111 -105
-125 -14 -14 -32 -37 -39 -52 -17 -32 -31 -28 -31 10 0 30 -27 76 -57 97 -10
7 -37 16 -59 20 -21 4 -59 18 -83 31 -24 13 -49 24 -56 24 -6 0 -20 9 -29 19
-10 11 -38 29 -63 41 -25 11 -50 26 -56 31 -12 10 -54 39 -183 123 -96 63
-209 139 -214 145 -3 3 -43 35 -90 71 -47 35 -96 75 -110 87 -14 13 -60 56
-103 96 l-78 72 -38 170 c-22 94 -47 200 -57 237 -10 37 -15 70 -11 74 3 4 35
-18 69 -47 35 -30 67 -57 73 -61 5 -5 31 -26 56 -48 76 -66 346 -267 394 -294
17 -9 71 -41 120 -72 50 -31 124 -73 165 -93 41 -21 92 -47 113 -59 21 -12 46
-22 57 -22 11 0 20 -3 20 -8 0 -7 49 -31 125 -59 22 -8 54 -21 70 -29 17 -7
52 -19 78 -26 26 -6 47 -16 47 -20 0 -9 -20 -46 -36 -68 -26 -34 -126 -241
-120 -247 12 -13 47 34 84 113 74 156 93 184 143 210 26 13 50 27 53 32 2 4
-39 8 -92 8 -102 0 -134 8 -260 65 -34 16 -69 29 -77 29 -7 0 -17 5 -20 10 -3
6 -14 10 -24 10 -10 0 -26 9 -36 20 -10 11 -29 20 -42 20 -12 0 -23 3 -23 8 0
4 -14 13 -31 21 -18 8 -59 31 -93 52 -33 21 -79 48 -101 59 -22 11 -51 29 -65
39 -14 11 -50 35 -80 55 -119 76 -257 176 -288 208 -10 9 -35 31 -57 48 -153
122 -255 221 -255 250 0 13 -9 53 -19 89 -35 120 -57 251 -44 259 7 4 47 4 90
1 43 -4 120 -2 172 4 81 9 91 12 75 24 -10 7 -37 13 -60 13 -31 0 -69 13 -136
47 -191 96 -213 119 -238 243 -7 30 -20 84 -31 120 -10 36 -25 90 -34 120 -8
30 -26 96 -41 145 -38 133 -44 159 -35 168 4 4 61 -19 127 -52 132 -65 224
-97 251 -87 15 6 14 8 -8 20 -81 43 -151 86 -203 125 -86 65 -213 192 -226
226 -14 35 -36 174 -69 430 -6 44 -13 101 -17 128 -6 39 -4 47 9 47 23 0 25 9
16 75 -4 33 -4 64 0 68 4 4 20 -23 36 -60 45 -109 97 -189 144 -219 29 -20 44
-3 30 34 -13 33 8 48 35 24 19 -17 19 -16 11 38 -4 30 -8 77 -9 104 l-1 50 55
16 c30 9 85 29 122 43 36 15 76 27 87 27 21 0 28 -18 13 -36 -30 -34 -40 -157
-20 -243 13 -59 33 -66 62 -23 24 36 81 76 99 69 19 -7 11 -144 -9 -164 -8 -8
-14 -19 -14 -24 0 -5 -6 -9 -13 -9 -8 0 -22 -9 -32 -20 -18 -20 -18 -22 5 -70
31 -66 116 -146 163 -155 39 -8 127 4 275 37 90 20 93 21 91 47 -2 14 7 48 20
74 24 51 22 77 -4 77 -32 0 -53 -20 -59 -57 -16 -84 -26 -101 -75 -114 -25 -6
-91 -14 -146 -16 -97 -5 -101 -4 -123 20 -13 13 -38 55 -57 93 l-33 69 36 37
c22 22 39 50 42 69 5 31 6 32 23 15 16 -17 17 -16 17 5 0 18 3 20 12 11 9 -9
15 -8 28 3 15 13 18 10 34 -40 9 -30 21 -55 25 -55 12 0 21 38 21 93 0 26 4
47 9 47 15 0 23 -18 11 -25 -5 -3 -10 -13 -10 -21 0 -13 4 -13 29 2 28 16 68
13 57 -4 -3 -5 16 -9 42 -9 53 1 72 -4 120 -28 50 -26 57 -12 59 121 0 64 3
118 6 120 4 5 24 -2 97 -34 19 -8 53 -29 74 -46 26 -21 40 -27 43 -18 3 6 12
12 21 12 11 0 -5 20 -41 51 -31 28 -62 60 -68 71 -10 18 -8 19 13 12 12 -4 29
-7 36 -7 6 0 12 -3 12 -7 0 -3 14 -14 30 -23 17 -10 30 -14 30 -10 0 10 -56
46 -83 53 -10 3 -18 8 -18 13 1 4 1 14 1 22 0 11 12 14 53 11 28 -1 60 -6 69
-10 13 -6 15 -3 11 13 -3 12 1 28 8 37 11 14 9 15 -23 9 -31 -6 -44 -1 -112
45 -42 29 -79 51 -81 48 -6 -5 91 -78 105 -78 5 0 10 -2 10 -4 0 -2 3 -11 6
-19 7 -20 -57 -41 -99 -33 -17 3 -59 20 -94 36 -188 89 -495 173 -763 209 -76
10 -235 -4 -225 -20 3 -4 69 -5 146 -2 99 4 141 3 138 -5 -2 -6 -60 -38 -129
-73 -69 -34 -132 -67 -140 -74 -8 -7 -24 -16 -36 -19 -19 -6 -22 -1 -33 63
-13 84 -14 144 -2 185 5 17 17 63 26 101 29 123 126 369 247 625 85 180 118
241 127 236 5 -3 12 -36 16 -73 4 -38 15 -99 25 -138 10 -38 23 -97 30 -130 6
-33 21 -98 32 -144 17 -67 18 -85 8 -91 -7 -5 -54 -12 -104 -16 -106 -9 -77
-21 40 -18 39 1 76 -1 81 -5 6 -3 18 -37 27 -76 9 -38 23 -88 31 -110 15 -39
15 -38 8 45 -4 47 -7 99 -8 115 l0 30 69 2 c85 3 101 13 20 13 -76 0 -99 15
-100 67 0 21 -4 97 -9 169 -4 82 -3 180 4 260 27 301 33 359 42 381 8 21 124
220 174 297 11 18 29 47 40 65 11 19 35 53 53 77 17 25 32 47 32 51 0 3 11 21
25 39 14 18 26 39 26 46 1 7 3 5 6 -6 3 -10 0 -37 -6 -60z m46 -38 c-3 -8 -6
-5 -6 6 -1 11 2 17 5 13 3 -3 4 -12 1 -19z m127 -245 c7 -163 22 -274 61 -458
4 -16 15 -52 25 -80 10 -27 28 -79 39 -115 30 -97 46 -139 59 -152 7 -7 12
-19 12 -27 0 -8 12 -39 26 -68 14 -30 23 -57 21 -59 -9 -9 -138 108 -208 189
-39 45 -96 119 -127 165 l-55 83 12 112 c7 62 17 126 23 142 5 17 14 53 18 80
10 54 24 124 40 195 6 25 13 61 16 80 17 106 30 76 38 -87z m1126 -315 c22
-44 49 -93 60 -108 11 -15 24 -38 30 -51 6 -13 26 -49 45 -79 20 -30 40 -64
46 -75 23 -45 145 -229 190 -286 16 -20 29 -40 29 -44 0 -4 8 -17 18 -30 9
-12 24 -33 32 -46 8 -12 25 -33 37 -46 12 -12 35 -42 51 -65 26 -39 71 -89
209 -238 24 -25 43 -48 43 -51 0 -9 -115 -20 -213 -21 -67 -1 -80 2 -97 20
-11 12 -20 24 -20 27 0 3 -5 11 -10 18 -31 35 -164 261 -193 327 -9 19 -32 71
-51 114 -20 43 -36 84 -36 91 0 6 -18 54 -40 106 -23 52 -60 150 -85 219 -24
69 -55 156 -69 195 -24 64 -32 105 -22 105 2 0 23 -37 46 -82z m-863 -570 c-3
-8 -6 -5 -6 6 -1 11 2 17 5 13 3 -3 4 -12 1 -19z m2847 -330 c-9 -55 -56 -101
-213 -204 -150 -100 -516 -285 -589 -298 -78 -14 -115 30 -49 58 54 24 121 56
152 75 17 9 73 40 125 68 103 54 204 117 301 186 21 15 42 27 45 27 7 0 159
109 193 139 21 18 26 19 33 7 5 -8 5 -34 2 -58z m626 -509 c14 -75 13 -422 -1
-473 -21 -78 -38 -116 -143 -326 -83 -165 -106 -200 -106 -163 0 11 6 36 14
55 8 19 24 70 36 114 12 43 26 95 32 114 5 19 13 58 18 85 4 28 17 88 28 135
32 129 72 467 72 610 0 119 13 124 27 10 7 -58 18 -130 23 -161z m-1787 191
l67 0 101 -97 c65 -64 118 -106 151 -121 28 -13 63 -33 78 -45 14 -12 43 -31
63 -42 58 -31 49 -51 -20 -47 -107 5 -260 50 -390 114 -107 52 -123 63 -123
84 0 18 -5 24 -21 24 -42 0 -139 83 -139 119 0 13 52 20 115 15 28 -2 80 -4
118 -4z m1147 -44 c0 -59 -16 -83 -102 -151 -88 -69 -192 -128 -298 -168 -36
-14 -80 -31 -97 -38 -31 -12 -34 -12 -63 16 -16 16 -30 32 -30 37 0 4 19 16
43 25 114 45 375 195 481 276 27 20 53 37 57 37 5 0 9 -15 9 -34z m-5197 -273
c3 -5 10 -53 16 -108 12 -108 34 -268 57 -408 l14 -89 -40 -60 c-22 -34 -43
-70 -46 -82 -9 -39 96 -280 129 -294 4 -2 7 -8 7 -13 0 -5 20 -30 45 -56 35
-38 49 -64 70 -133 15 -47 31 -93 36 -103 15 -28 1 -57 -27 -57 -81 0 -165 85
-204 207 -7 21 -16 43 -20 48 -15 20 -50 86 -50 95 0 9 -22 57 -102 230 -65
139 -82 221 -75 375 4 71 13 155 21 185 31 118 47 143 65 98 29 -76 30 -75 28
28 -2 88 1 105 17 123 19 21 50 28 59 14z m1787 -48 c17 -20 5 -45 -20 -45
-23 0 -35 22 -26 45 7 19 30 19 46 0z m2782 -151 c50 -20 100 -44 110 -54 17
-16 58 -127 58 -158 0 -27 -31 -5 -127 88 -54 53 -113 106 -130 119 -35 24
-42 41 -18 41 8 0 56 -16 107 -36z m-483 -143 c12 -8 13 -12 1 -26 -12 -14
-15 -14 -28 -1 -8 8 -11 19 -8 25 9 13 16 14 35 2z m-3978 -381 c4 -19 14 -64
23 -100 8 -36 21 -90 27 -120 7 -30 15 -59 19 -65 13 -18 20 -64 12 -69 -15
-9 -64 66 -118 184 -14 30 -30 63 -35 72 -15 30 -10 64 18 118 23 44 28 49 37
33 5 -9 13 -33 17 -53z m-57 -831 c29 -20 146 -187 146 -209 0 -5 4 -10 8 -10
5 0 14 -16 22 -35 8 -19 17 -35 22 -35 4 0 8 -7 8 -15 0 -14 19 -54 30 -65 3
-3 18 -32 33 -65 25 -55 29 -60 56 -58 17 2 33 -2 36 -7 3 -6 24 -10 45 -10
21 0 42 -4 45 -10 3 -5 17 -10 30 -10 13 0 27 -4 30 -10 3 -5 15 -10 26 -10
10 0 19 -4 19 -10 0 -5 6 -10 14 -10 20 0 76 -49 76 -66 0 -8 6 -17 14 -20 8
-3 17 -17 21 -32 3 -14 16 -46 27 -71 28 -62 65 -187 94 -316 66 -294 62 -282
134 -389 87 -129 111 -150 250 -226 63 -35 118 -68 122 -74 13 -19 9 -26 -19
-26 -14 0 -24 -3 -20 -6 9 -9 133 16 153 31 16 12 16 13 -4 19 -12 4 -20 11
-17 16 6 10 -4 71 -40 235 -34 154 -40 195 -29 195 5 0 35 -24 66 -52 31 -29
67 -61 80 -71 13 -10 55 -42 93 -72 39 -30 79 -62 90 -70 52 -40 223 -158 250
-172 17 -9 59 -35 95 -58 150 -97 179 -115 187 -115 15 -1 55 -39 49 -49 -6
-9 49 -24 131 -36 45 -7 63 -23 83 -73 18 -46 -2 -134 -41 -184 -16 -20 -29
-41 -29 -46 0 -12 -129 -135 -167 -159 -15 -9 -30 -20 -33 -23 -11 -14 -140
-59 -196 -69 -144 -26 -322 -6 -401 45 -12 8 -29 14 -37 14 -7 0 -55 27 -105
60 -50 33 -98 60 -106 60 -8 0 -15 3 -15 8 0 11 -51 32 -74 31 -21 -1 -21 -1
-1 -8 11 -4 39 -15 63 -26 35 -16 42 -24 40 -44 -2 -19 -26 -37 -113 -87 -154
-90 -248 -137 -335 -170 -70 -26 -85 -28 -215 -27 -96 0 -157 5 -195 16 -30 9
-66 19 -80 23 -14 3 -38 12 -55 19 -103 44 -152 66 -165 75 -52 32 -112 60
-120 55 -17 -10 2 -36 41 -55 34 -18 37 -23 29 -44 -5 -13 -6 -26 -4 -29 3 -3
-6 -27 -20 -53 -14 -27 -26 -53 -26 -58 0 -14 -32 -46 -46 -46 -7 0 -15 15
-19 33 -9 44 -45 157 -60 187 -16 32 -30 66 -45 110 -18 53 -71 167 -186 402
-69 142 -76 161 -69 195 4 21 10 67 14 103 6 65 6 65 36 63 17 -1 48 -6 70
-11 139 -34 222 -41 272 -21 37 15 31 16 -120 29 -100 8 -210 29 -229 44 -1 0
-4 87 -7 191 l-6 190 -12 -115 c-7 -63 -15 -167 -18 -230 -2 -63 -9 -159 -15
-213 l-10 -97 89 -178 c102 -201 165 -345 228 -517 45 -122 83 -282 83 -351 0
-64 12 -134 21 -128 13 8 11 52 -2 56 -9 3 -9 9 0 25 6 12 9 28 6 35 -7 21
-13 129 -8 149 3 11 11 19 18 19 6 0 20 9 30 20 10 11 21 20 25 20 5 0 48 27
96 60 83 57 92 60 129 54 22 -3 45 -10 50 -14 6 -4 34 -13 64 -21 29 -7 56
-19 58 -27 3 -7 -10 -28 -29 -45 -197 -180 -318 -295 -319 -305 -1 -4 -23 -27
-50 -51 -32 -29 -54 -41 -65 -37 -13 5 -14 9 -4 21 10 12 10 15 -3 15 -9 0
-19 -5 -22 -10 -4 -6 -19 7 -35 28 -44 61 -95 107 -147 132 -93 44 -93 44
-104 33 -7 -7 11 -20 58 -42 51 -25 87 -53 145 -113 87 -91 96 -118 53 -164
-23 -24 -30 -26 -75 -21 -27 3 -69 15 -93 25 -93 41 -216 185 -316 372 -13 25
-27 47 -31 50 -4 3 -31 43 -59 90 -30 51 -51 77 -51 64 0 -11 4 -24 9 -30 4
-5 32 -56 62 -114 29 -58 66 -121 81 -140 15 -19 28 -39 28 -44 0 -12 73 -110
114 -154 l31 -33 -105 6 c-58 4 -132 11 -165 16 -33 5 -76 9 -95 9 -32 0 -176
60 -190 78 -3 4 -17 15 -33 25 -15 10 -39 36 -54 58 -15 22 -77 78 -137 125
-61 46 -122 93 -136 104 -14 11 -31 20 -39 20 -7 0 -1 -10 15 -22 16 -12 31
-25 34 -28 3 -3 32 -25 64 -50 88 -66 176 -152 176 -170 0 -26 -23 -42 -144
-95 -53 -24 -152 -30 -228 -16 -64 13 -249 97 -297 136 -24 19 -63 47 -100 70
-28 18 -401 394 -401 405 0 5 -4 10 -10 10 -22 0 -8 -30 38 -80 106 -119 229
-243 267 -270 22 -16 55 -42 73 -59 18 -17 37 -31 42 -31 5 0 15 -8 22 -17 13
-18 57 -49 130 -92 21 -12 79 -40 130 -62 87 -37 99 -40 188 -39 89 0 136 9
185 37 17 9 31 4 90 -32 39 -24 76 -44 83 -44 6 -1 12 -5 12 -11 0 -5 8 -10
18 -10 9 0 37 -12 62 -25 46 -25 111 -56 165 -80 17 -8 50 -19 75 -25 86 -22
125 -32 150 -40 14 -4 49 -13 78 -20 60 -14 75 -9 192 63 35 22 82 42 103 45
25 3 47 15 65 35 93 105 138 151 231 241 194 187 202 195 207 181 3 -7 -6 -56
-20 -109 -25 -94 -30 -141 -50 -526 -2 -47 -9 -109 -15 -139 -18 -96 -93 -214
-203 -322 -54 -53 -71 -62 -193 -109 -68 -25 -307 -100 -340 -106 -22 -4 -49
-13 -60 -20 -11 -8 -28 -14 -38 -14 -10 0 -46 -11 -80 -24 -34 -13 -102 -36
-152 -51 -49 -16 -94 -32 -99 -37 -6 -4 -20 -8 -33 -8 -12 0 -48 -7 -80 -16
-32 -8 -87 -22 -123 -30 -36 -7 -76 -18 -90 -23 -14 -5 -52 -14 -85 -21 -102
-21 -248 -58 -290 -74 l-40 -15 33 -1 c17 0 32 5 32 10 0 6 16 10 36 10 36 0
99 14 139 30 11 5 36 11 55 14 71 10 105 18 125 26 11 5 34 11 50 14 113 20
221 48 257 67 10 5 28 9 40 9 13 1 48 9 78 20 61 21 100 25 100 10 0 -5 -9
-10 -20 -10 -11 0 -20 -4 -20 -9 0 -5 -15 -15 -32 -22 -18 -7 -58 -29 -88 -50
-30 -20 -86 -53 -125 -75 -38 -21 -72 -40 -75 -43 -3 -4 -18 -13 -35 -21 -16
-8 -57 -32 -91 -52 -34 -21 -64 -38 -68 -38 -4 0 -27 -13 -51 -30 -24 -16 -48
-30 -53 -30 -5 0 -15 -7 -22 -15 -6 -7 -33 -25 -58 -38 -26 -13 -76 -39 -112
-58 -79 -43 -199 -88 -262 -99 -27 -5 -52 -11 -57 -14 -12 -8 -137 21 -170 39
-34 18 -120 100 -158 150 -28 37 -46 67 -131 213 -38 65 -65 107 -134 209 -26
39 -48 76 -48 81 0 6 -29 49 -65 97 -36 47 -65 88 -65 91 0 4 -12 23 -28 43
-15 20 -31 43 -37 53 -5 9 -24 36 -41 59 -16 24 -52 76 -79 114 -27 39 -51 72
-54 75 -3 3 -10 12 -16 21 -5 9 -35 51 -65 94 -30 43 -59 85 -65 94 -5 8 -22
34 -36 56 -49 75 -147 290 -163 357 -30 128 -16 226 59 394 15 33 31 92 36
137 5 42 14 114 19 160 6 45 15 127 20 182 6 55 15 129 20 165 5 36 13 97 19
135 13 101 19 122 57 201 34 69 102 154 123 154 6 0 11 4 11 9 0 5 8 11 18 14
9 3 49 17 87 32 39 15 93 34 120 42 28 9 62 24 77 34 14 11 35 19 46 19 10 0
31 9 46 21 40 31 52 13 19 -29 -15 -21 -31 -38 -35 -40 -4 -2 -8 -10 -8 -18 0
-8 -4 -14 -9 -14 -8 0 -41 -37 -196 -221 -22 -26 -49 -59 -60 -73 -11 -14 -32
-41 -47 -58 -31 -36 -39 -70 -13 -48 8 7 39 45 69 84 30 39 70 88 90 108 20
20 36 40 36 43 0 4 16 23 35 43 19 20 35 40 35 44 0 4 13 20 28 35 16 16 49
53 73 83 25 30 63 73 85 96 21 22 67 72 101 110 90 102 304 317 407 409 130
118 169 142 266 166 90 23 145 49 103 49 -12 0 -32 -4 -45 -9 -13 -5 -43 -14
-68 -21 -58 -16 -141 -52 -135 -59 3 -3 -7 -12 -23 -21 -40 -20 -187 -156
-341 -315 -204 -209 -277 -279 -302 -291 -120 -57 -144 -70 -147 -76 -2 -5
-15 -8 -28 -8 -31 0 -31 21 1 88 14 29 25 58 25 64 0 7 11 32 24 55 14 23 27
53 31 65 16 52 140 288 192 362 65 94 90 118 158 150 131 61 230 76 516 76
265 0 286 -4 206 -42 -24 -12 -35 -23 -31 -32 4 -10 -65 -86 -195 -217 -201
-201 -265 -272 -225 -251 10 5 59 54 109 107 136 145 337 346 460 458 61 56
123 114 140 129 36 35 66 44 103 30 15 -6 57 -16 95 -22 78 -14 88 -30 19 -30
-27 0 -57 -7 -68 -14 -17 -13 -11 -14 54 -9 89 7 91 0 20 -76 -29 -31 -64 -70
-78 -87 -14 -16 -40 -46 -57 -67 -18 -21 -33 -45 -32 -55 0 -13 2 -14 6 -3 3
8 15 25 27 37 12 12 39 43 61 68 22 26 70 78 108 116 54 55 75 70 108 75 55 9
45 29 -17 33 -27 2 -53 7 -58 13 -6 5 -25 9 -43 9 -18 0 -33 4 -33 9 0 9 64
61 76 61 4 0 37 20 73 44 37 24 91 57 121 72 30 16 57 31 60 34 11 11 128 79
186 108 49 25 69 29 103 25 52 -7 58 -16 28 -45 -86 -83 -185 -258 -190 -332
-2 -31 -8 -43 -25 -51 -25 -11 -29 -25 -7 -25 24 0 32 -30 34 -120 1 -87 18
-187 33 -204 4 -6 8 -21 8 -33 0 -13 10 -54 22 -91 19 -56 23 -62 26 -38 2 16
-1 33 -7 39 -6 6 -11 21 -11 34 0 13 -4 23 -9 23 -5 0 -11 17 -14 38 -3 20
-11 60 -17 87 -18 74 -24 321 -10 370 33 109 97 205 215 318 55 53 82 58 129
26z m386 -186 c17 -38 61 -127 96 -198 71 -145 76 -162 42 -143 -13 6 -27 13
-33 14 -5 2 -34 7 -62 13 -115 23 -149 60 -237 252 -14 31 -26 61 -26 67 0 11
129 58 166 61 17 1 28 -13 54 -66z m877 -69 c-3 -3 -12 -4 -19 -1 -8 3 -5 6 6
6 11 1 17 -2 13 -5z m-2007 -139 c0 -8 -2 -15 -4 -15 -2 0 -6 7 -10 15 -3 8
-1 15 4 15 6 0 10 -7 10 -15z m4614 -704 c30 -53 57 -108 61 -121 3 -14 1 -57
-5 -94 -18 -111 -30 -213 -40 -338 -5 -64 -19 -143 -29 -175 -11 -32 -23 -80
-27 -108 -3 -27 -10 -54 -14 -60 -4 -5 -14 -32 -23 -60 -23 -75 -85 -243 -101
-273 -7 -15 -19 -45 -26 -67 -7 -22 -26 -67 -41 -99 -16 -33 -29 -65 -29 -71
0 -6 -9 -28 -20 -50 -11 -22 -20 -45 -20 -52 0 -7 -4 -13 -10 -13 -5 0 -10 -6
-10 -12 0 -7 -27 -67 -60 -133 -33 -66 -60 -124 -60 -130 0 -9 -40 -90 -77
-160 -6 -11 -26 -49 -44 -85 -18 -36 -35 -67 -38 -70 -4 -3 -12 -16 -19 -30
-6 -14 -16 -32 -21 -40 -5 -8 -25 -48 -43 -87 -34 -76 -48 -90 -48 -49 0 22
-13 70 -30 111 -14 32 -24 178 -25 360 0 158 2 190 26 285 4 19 13 60 20 90 6
30 19 84 30 120 10 36 25 101 34 145 9 44 23 112 31 150 30 136 25 403 -10
520 -8 28 -24 88 -36 135 -12 47 -25 94 -30 105 -34 89 -37 123 -12 132 9 4
35 18 57 32 22 15 54 33 70 40 17 8 41 19 55 25 14 6 27 13 30 16 3 3 21 13
40 22 19 10 42 22 50 26 31 18 66 36 105 55 22 11 78 45 125 77 47 32 92 60
100 63 24 7 56 -29 114 -132z m79 -36 c8 -19 -13 -31 -24 -14 -13 20 -11 29 5
29 8 0 16 -7 19 -15z m-869 -244 c9 -16 12 -31 9 -35 -4 -3 -2 -16 4 -29 10
-23 44 -133 61 -202 6 -22 19 -67 29 -100 32 -108 17 -438 -27 -580 -9 -28
-29 -105 -51 -200 -6 -22 -14 -62 -19 -89 -5 -26 -14 -62 -19 -80 -5 -17 -17
-74 -26 -126 -9 -52 -18 -101 -21 -109 -10 -32 -133 193 -229 419 -15 36 -38
86 -51 112 -13 26 -24 54 -24 62 0 13 -27 35 -75 62 -11 6 -37 21 -58 32 -50
29 -57 28 -57 -8 0 -17 -9 -59 -19 -93 -38 -121 -39 -116 29 -196 80 -97 82
-108 32 -174 -22 -28 -45 -63 -52 -77 -7 -14 -16 -27 -20 -30 -3 -3 -26 -33
-50 -68 -24 -34 -47 -61 -53 -59 -5 1 -22 26 -38 55 -29 53 -36 90 -21 107 5
6 15 36 22 68 7 32 17 60 22 63 4 3 8 16 8 29 0 13 5 27 10 30 6 3 10 16 10
27 0 20 13 68 31 113 4 11 10 34 14 50 3 17 10 46 14 65 5 19 14 58 19 85 15
73 63 162 122 225 28 30 68 80 88 110 20 30 51 71 69 90 18 19 33 39 33 43 0
4 11 20 25 35 14 15 25 31 25 36 0 5 9 19 20 31 21 23 45 109 55 199 7 61 13
71 65 98 14 7 31 19 38 26 21 20 40 14 56 -17z m1448 -257 c24 -41 68 -117
118 -204 24 -41 51 -86 60 -100 9 -14 21 -37 25 -50 4 -14 13 -32 20 -40 7 -8
33 -53 57 -100 24 -47 49 -94 55 -105 7 -11 26 -51 43 -89 26 -57 30 -74 21
-93 -6 -13 -11 -31 -11 -39 0 -8 -11 -32 -25 -52 -14 -20 -25 -42 -25 -50 0
-7 -19 -52 -41 -100 -90 -188 -139 -294 -139 -297 0 -2 -22 -41 -48 -87 -26
-46 -54 -99 -62 -118 -7 -19 -24 -51 -37 -70 -13 -19 -23 -40 -23 -46 0 -6 -7
-17 -16 -25 -9 -7 -31 -42 -50 -78 -37 -71 -46 -86 -111 -180 -22 -33 -43 -66
-46 -73 -12 -34 -18 17 -28 233 -11 243 -5 774 11 904 11 88 61 330 94 455 14
52 37 142 52 200 14 58 29 112 33 120 4 8 14 39 21 68 13 58 25 61 52 16z
m-2069 -626 c-6 -7 -13 -26 -16 -43 -3 -16 -16 -70 -30 -120 -14 -49 -27 -101
-29 -115 -2 -15 -11 -26 -22 -28 -14 -3 -17 0 -12 13 3 10 9 58 13 107 5 77
10 94 34 124 15 20 34 48 41 64 8 18 16 26 22 20 6 -6 5 -14 -1 -22z m191 -48
c27 -18 46 -40 50 -57 4 -15 18 -50 30 -78 63 -133 86 -187 86 -200 0 -7 3
-15 8 -17 8 -4 52 -89 52 -102 0 -20 53 -111 95 -162 25 -31 45 -59 45 -64 0
-73 37 -337 60 -426 32 -123 35 -154 21 -182 -5 -9 -35 -80 -66 -157 -31 -77
-64 -156 -72 -175 -9 -19 -22 -53 -29 -75 -24 -76 -54 -149 -64 -159 -5 -5
-10 -18 -10 -27 0 -9 -13 -47 -30 -84 -16 -37 -30 -71 -30 -76 0 -5 -8 -28
-18 -52 -10 -23 -27 -64 -36 -92 -23 -63 -51 -142 -66 -179 -10 -28 -11 -29
-28 -10 -27 30 -70 214 -77 331 -2 35 -8 78 -14 95 -5 18 -12 67 -15 108 -2
41 -11 174 -20 295 -11 155 -14 281 -9 426 5 184 4 210 -12 255 -10 27 -22 54
-26 59 -4 6 -21 35 -37 66 l-29 56 50 74 c27 41 62 90 77 109 15 19 39 55 54
80 15 25 34 55 42 66 14 21 11 27 -52 110 -36 49 -68 94 -71 100 -2 7 5 40 16
74 12 35 21 74 21 88 0 22 3 24 30 18 17 -3 50 -19 74 -36z m-321 -167 c-5
-108 -25 -273 -35 -279 -4 -3 -11 2 -14 10 -8 21 -20 20 -28 0 -4 -9 0 -24 8
-33 8 -9 31 -50 52 -91 21 -41 50 -93 64 -115 15 -22 32 -56 40 -75 7 -19 22
-47 31 -61 31 -45 37 -106 38 -399 1 -157 6 -321 11 -365 5 -44 12 -106 15
-138 3 -32 10 -101 15 -155 19 -188 22 -260 9 -232 -24 51 -39 88 -39 95 0 4
-6 21 -14 38 -7 18 -19 48 -26 67 -15 41 -64 158 -91 217 -10 24 -19 47 -19
53 0 5 -6 24 -14 42 -8 18 -29 71 -47 118 -18 47 -41 99 -50 116 -10 18 -21
54 -24 80 -4 27 -13 56 -19 64 -7 8 -18 33 -25 55 -8 22 -23 60 -33 85 -32 73
-36 82 -58 150 -12 36 -28 79 -35 95 -7 17 -25 62 -40 100 -15 39 -36 89 -46
112 -25 55 -24 73 4 114 12 19 48 86 78 149 54 112 58 116 102 135 26 10 47
23 47 27 0 4 7 8 16 8 18 0 44 23 44 39 0 6 6 8 14 5 9 -3 20 3 28 15 7 12 20
21 28 21 13 0 15 -12 13 -67z m-1131 -138 c4 -22 18 -101 32 -175 36 -196 35
-191 57 -365 29 -238 47 -540 43 -715 -5 -154 -9 -190 -22 -190 -4 0 -27 26
-50 58 -123 164 -182 252 -270 400 -136 229 -161 274 -263 472 -30 58 -57 107
-60 110 -14 12 -119 229 -119 246 0 22 31 31 130 39 155 11 240 40 440 146 52
28 73 22 82 -26z m838 30 c0 -8 -4 -23 -9 -33 -5 -9 -17 -37 -27 -61 -10 -24
-23 -49 -29 -55 -5 -7 -18 -25 -27 -41 -25 -44 -34 -41 -54 17 -9 29 -27 76
-40 104 -13 29 -20 55 -17 58 4 3 30 6 59 6 29 0 56 5 59 10 3 6 24 10 46 10
28 0 39 -4 39 -15z m-1777 -42 c15 -7 27 -15 27 -17 0 -2 -24 -21 -52 -42 -29
-20 -54 -41 -56 -46 -4 -8 -42 -12 -42 -3 0 2 8 26 18 52 11 26 22 56 25 66 7
20 27 17 80 -10z m4408 -516 c-11 -45 -35 -152 -52 -237 -17 -85 -35 -163 -40
-172 -5 -9 -9 -31 -9 -49 0 -18 -9 -62 -20 -98 -10 -36 -28 -102 -39 -146 -55
-227 -148 -531 -159 -520 -3 3 -11 51 -18 107 -20 149 -23 178 -34 328 -5 74
-12 153 -15 174 -5 35 0 47 45 112 27 41 50 77 50 80 0 4 6 15 14 23 8 9 23
33 35 54 12 20 30 54 42 75 12 20 27 44 35 53 8 8 14 23 14 32 0 9 4 17 9 17
5 0 25 30 44 68 101 197 112 216 115 199 2 -10 -6 -55 -17 -100z m-5514 20
c105 -67 128 -74 303 -88 69 -6 159 -14 200 -18 74 -7 153 -33 178 -58 7 -7
20 -13 28 -13 22 0 16 -24 -9 -36 -12 -6 -44 -24 -70 -39 l-48 -27 -92 16
c-92 17 -237 62 -311 97 -22 11 -48 19 -57 19 -10 0 -21 5 -24 10 -4 6 -28 21
-53 33 -51 24 -144 78 -168 98 -14 11 -13 15 8 31 32 25 39 23 115 -25z m1793
-466 c27 -45 50 -84 50 -86 0 -8 195 -293 221 -323 16 -18 29 -37 29 -42 0 -5
16 -26 35 -47 40 -42 39 -33 15 -215 -13 -94 -24 -118 -36 -80 -4 9 -24 55
-46 102 -22 47 -49 107 -60 135 -11 27 -25 61 -33 75 -7 14 -20 43 -28 65 -8
22 -33 79 -55 125 -22 47 -43 96 -47 110 -4 14 -21 52 -36 84 -16 33 -29 63
-29 68 0 5 -9 28 -20 50 -18 38 -27 79 -15 66 3 -2 27 -42 55 -87z m4180 -889
c0 -9 -5 -24 -10 -32 -7 -11 -10 -5 -10 23 0 23 4 36 10 32 6 -3 10 -14 10
-23z"/>
<path d="M4975 7360 c-3 -4 21 -9 53 -12 31 -2 80 -14 107 -27 28 -12 59 -26
70 -30 39 -15 160 -75 181 -91 12 -9 41 -22 65 -30 24 -8 46 -17 49 -20 12
-14 259 -125 303 -135 29 -8 35 -1 15 18 -20 19 -117 87 -125 87 -3 0 -15 8
-26 18 -10 9 -36 26 -57 37 -148 78 -206 105 -227 105 -13 0 -31 4 -41 9 -32
16 -158 51 -186 51 -15 0 -35 4 -44 9 -22 11 -132 20 -137 11z"/>
<path d="M5290 7079 c25 -5 81 -13 125 -19 69 -10 150 -39 165 -59 3 -4 27
-24 55 -45 59 -44 78 -29 21 17 -39 32 -45 47 -18 47 24 1 -62 40 -101 46 -47
8 -227 23 -262 22 -23 0 -20 -3 15 -9z"/>
<path d="M6555 6798 c-33 -18 -157 -148 -152 -161 2 -6 26 11 53 39 27 27 67
64 88 81 39 34 47 60 11 41z"/>
<path d="M6988 6633 c6 -2 18 -2 25 0 6 3 1 5 -13 5 -14 0 -19 -2 -12 -5z"/>
<path d="M4736 6255 c-3 -8 -1 -15 4 -15 6 0 10 7 10 15 0 8 -2 15 -4 15 -2 0
-6 -7 -10 -15z"/>
<path d="M7045 6130 c-3 -5 1 -10 9 -10 9 0 16 5 16 10 0 6 -4 10 -9 10 -6 0
-13 -4 -16 -10z"/>
<path d="M7140 6130 c0 -5 5 -10 10 -10 6 0 10 5 10 10 0 6 -4 10 -10 10 -5 0
-10 -4 -10 -10z"/>
<path d="M7020 6091 c0 -5 5 -13 10 -16 6 -3 10 -2 10 4 0 5 -4 13 -10 16 -5
3 -10 2 -10 -4z"/>
<path d="M7270 6038 c0 -9 5 -20 10 -23 13 -8 13 5 0 25 -8 13 -10 13 -10 -2z"/>
<path d="M7400 5730 c0 -5 5 -10 10 -10 6 0 10 5 10 10 0 6 -4 10 -10 10 -5 0
-10 -4 -10 -10z"/>
<path d="M6164 5588 c-12 -39 -7 -71 9 -65 14 4 22 97 9 97 -5 0 -13 -15 -18
-32z"/>
<path d="M6110 4490 c0 -5 5 -10 10 -10 6 0 10 5 10 10 0 6 -4 10 -10 10 -5 0
-10 -4 -10 -10z"/>
<path d="M6090 3608 c-61 -33 -76 -45 -68 -53 7 -7 104 43 119 62 21 25 5 22
-51 -9z"/>
<path d="M2674 4681 c4 -6 29 -11 56 -11 27 0 52 -4 55 -10 3 -5 25 -10 48
-10 52 0 38 16 -23 24 -114 17 -142 18 -136 7z"/>
<path d="M2335 4647 c-59 -43 -209 -190 -229 -224 -4 -8 -22 -28 -40 -43 -17
-16 -28 -31 -25 -35 4 -3 79 67 168 156 89 89 160 163 159 164 -2 2 -17 -6
-33 -18z"/>
<path d="M3603 4553 c14 -47 77 -213 96 -253 18 -40 21 -42 21 -17 0 15 -4 27
-10 27 -5 0 -10 9 -10 20 0 11 -4 28 -9 38 -15 29 -29 65 -42 107 -7 22 -17
44 -21 50 -4 5 -8 17 -8 27 0 10 -5 18 -11 18 -6 0 -9 -8 -6 -17z"/>
<path d="M2250 4344 c-25 -12 -65 -28 -90 -35 -25 -7 -54 -19 -65 -26 -11 -7
-27 -13 -37 -13 -10 0 -18 -4 -18 -9 0 -9 37 -3 55 9 6 3 30 12 55 19 25 7 53
17 62 22 10 5 28 9 40 9 20 0 56 36 46 45 -2 1 -23 -8 -48 -21z"/>
<path d="M2012 4318 c-7 -7 -12 -18 -12 -26 0 -7 -4 -11 -9 -8 -4 3 -17 -11
-27 -30 -13 -23 -28 -37 -46 -41 -16 -3 -28 -9 -28 -14 0 -5 -7 -9 -15 -9 -8
0 -15 -4 -15 -9 0 -5 -6 -16 -13 -23 -32 -33 -78 -98 -69 -98 10 0 62 57 78
86 9 16 70 52 151 87 21 9 21 11 6 22 -16 12 -16 14 1 40 19 28 18 43 -2 23z"/>
<path d="M3732 4235 c-1 -16 5 -41 13 -55 l14 -25 1 26 c0 14 -4 29 -9 35 -5
5 -11 18 -14 29 -3 14 -5 11 -5 -10z"/>
<path d="M3030 4097 c0 -41 135 -280 154 -274 17 6 17 24 1 40 -8 9 -15 18
-15 21 0 3 -18 33 -40 67 -22 34 -40 66 -40 70 0 5 -13 30 -30 56 -27 43 -30
45 -30 20z"/>
<path d="M2240 3948 c0 -68 -3 -153 -7 -190 -5 -59 -4 -68 11 -68 14 0 16 20
16 190 0 120 -4 190 -10 190 -6 0 -10 -48 -10 -122z"/>
<path d="M1747 4032 c-10 -10 -17 -24 -17 -30 0 -7 -4 -12 -10 -12 -5 0 -10
-6 -10 -13 0 -8 -12 -20 -27 -27 -24 -11 -25 -14 -10 -18 11 -2 25 5 33 17 8
11 20 26 27 33 18 20 39 59 34 64 -2 2 -11 -4 -20 -14z"/>
<path d="M1610 3920 c-12 -8 -9 -10 13 -10 15 0 27 5 27 10 0 13 -20 13 -40 0z"/>
<path d="M1578 3893 c7 -3 16 -2 19 1 4 3 -2 6 -13 5 -11 0 -14 -3 -6 -6z"/>
<path d="M1513 3873 c9 -2 23 -2 30 0 6 3 -1 5 -18 5 -16 0 -22 -2 -12 -5z"/>
<path d="M1468 3853 c6 -2 18 -2 25 0 6 3 1 5 -13 5 -14 0 -19 -2 -12 -5z"/>
<path d="M3744 3837 c-27 -30 -92 -80 -124 -94 -109 -50 -153 -54 -226 -23
-54 24 -67 19 -36 -13 20 -20 32 -22 126 -22 102 0 103 0 162 39 55 36 134
107 134 120 0 10 -25 6 -36 -7z"/>
<path d="M1438 3833 c7 -3 16 -2 19 1 4 3 -2 6 -13 5 -11 0 -14 -3 -6 -6z"/>
<path d="M1398 3813 c7 -3 16 -2 19 1 4 3 -2 6 -13 5 -11 0 -14 -3 -6 -6z"/>
<path d="M1332 3744 c-18 -31 -32 -67 -32 -80 0 -13 -3 -24 -8 -24 -11 0 -32
-76 -31 -112 1 -26 5 -19 18 32 9 36 19 70 22 75 4 6 12 28 19 50 7 22 26 57
42 78 19 24 25 37 16 37 -8 0 -28 -25 -46 -56z"/>
<path d="M2226 3585 c-4 -38 -17 -110 -27 -159 -22 -103 -23 -116 -9 -116 6 0
10 15 10 34 0 19 4 37 9 40 11 7 34 190 29 236 -2 27 -5 19 -12 -35z"/>
<path d="M1645 3565 c-6 -17 -10 -153 -10 -310 0 -274 9 -430 26 -441 5 -3 9
-25 9 -50 0 -24 4 -44 8 -44 4 0 9 -12 10 -27 1 -16 7 -29 12 -31 6 -2 10 -10
10 -18 0 -8 4 -14 9 -14 9 0 2 23 -28 95 -5 11 -9 34 -10 50 -1 17 -6 54 -11
84 -6 30 -10 76 -10 102 0 26 -5 51 -11 54 -13 9 -11 422 3 448 5 10 8 43 6
75 -3 53 -4 55 -13 27z"/>
<path d="M1237 3463 c-3 -21 -13 -69 -22 -108 -8 -38 -15 -83 -15 -98 0 -16
-4 -36 -9 -45 -13 -26 -25 -142 -13 -142 5 0 12 26 16 58 9 83 22 154 45 262
11 52 16 99 12 103 -5 5 -11 -9 -14 -30z"/>
<path d="M4079 3331 c-102 -107 -182 -198 -188 -214 -3 -10 -16 -25 -55 -70
-18 -21 -86 -109 -115 -149 -11 -15 -12 -21 -1 -31 10 -9 14 -9 17 1 3 7 15
25 27 40 12 15 48 63 78 107 31 44 67 91 80 105 13 14 51 59 85 100 33 41 75
89 93 105 44 41 94 105 82 105 -5 0 -51 -44 -103 -99z"/>
<path d="M4763 3356 c-35 -17 -28 -21 29 -18 54 3 90 -8 156 -49 17 -12 32
-16 32 -11 0 17 -82 72 -107 72 -13 0 -23 5 -23 10 0 13 -59 11 -87 -4z"/>
<path d="M2158 3259 c-23 -39 -23 -76 0 -127 l18 -41 0 100 c-1 54 -1 99 -1
99 0 0 -8 -14 -17 -31z"/>
<path d="M4496 3280 c7 -7 19 -7 35 -1 23 9 22 10 -10 10 -24 1 -32 -2 -25 -9z"/>
<path d="M5009 3251 c12 -12 24 -21 27 -21 3 0 24 -13 47 -29 51 -34 83 -45
92 -31 3 5 1 10 -5 10 -6 0 -39 17 -73 39 -34 21 -73 42 -85 46 l-24 7 21 -21z"/>
<path d="M5190 3162 c0 -14 120 -36 265 -48 108 -8 33 18 -89 32 -61 7 -126
16 -143 19 -20 5 -33 4 -33 -3z"/>
<path d="M1157 3020 c-9 -53 -27 -209 -34 -295 -3 -43 0 -65 10 -79 13 -18 14
-7 15 98 0 64 6 140 12 169 7 29 10 75 8 102 l-3 50 -8 -45z"/>
<path d="M2216 3023 c10 -16 39 -56 66 -90 26 -34 48 -65 48 -68 0 -5 12 -20
54 -68 10 -12 30 -38 44 -57 15 -19 52 -66 83 -105 58 -71 94 -126 105 -157 4
-10 10 -18 15 -18 5 0 9 -7 9 -15 0 -8 4 -15 9 -15 5 0 12 -8 14 -17 4 -17 5
-17 6 0 0 10 -17 45 -39 77 -22 32 -40 63 -40 68 0 6 -12 23 -27 39 -16 17
-34 42 -42 57 -8 15 -38 50 -67 79 -28 29 -58 66 -67 82 -9 17 -27 42 -41 57
-14 15 -26 32 -26 37 0 6 -9 16 -20 23 -11 7 -20 18 -20 25 0 7 -4 13 -10 13
-5 0 -10 7 -10 15 0 8 -4 15 -8 15 -5 0 -15 11 -22 25 -7 14 -18 25 -23 25 -5
0 -1 -12 9 -27z"/>
<path d="M4464 2776 c11 -9 29 -16 40 -16 28 0 8 17 -29 25 -29 6 -29 6 -11
-9z"/>
<path d="M1731 2615 c11 -26 45 -75 52 -75 15 0 6 19 -25 51 -17 19 -29 30
-27 24z"/>
<path d="M1802 2511 c15 -21 132 -121 143 -121 3 0 20 -13 38 -30 18 -16 39
-30 47 -30 15 1 -3 19 -71 70 -18 14 -61 49 -95 78 -65 54 -84 65 -62 33z"/>
<path d="M6790 3715 c0 -28 12 -81 47 -210 14 -49 32 -117 40 -150 8 -33 18
-69 23 -80 5 -11 11 -36 14 -55 6 -42 41 -187 52 -215 4 -11 15 -30 24 -42
l18 -23 6 32 c3 17 2 36 -3 42 -8 11 -35 104 -52 181 -16 77 -90 360 -99 380
-5 11 -14 45 -21 75 -13 63 -25 90 -39 90 -6 0 -10 -11 -10 -25z"/>
<path d="M5575 1917 c-46 -52 -54 -101 -34 -199 11 -56 38 -118 51 -118 5 0 8
-5 8 -11 0 -15 31 -38 51 -39 55 -1 101 101 81 177 -7 24 -12 52 -12 63 0 39
-50 118 -85 134 -41 20 -36 20 -60 -7z m78 -49 c36 -49 47 -92 47 -183 0 -78
-1 -82 -25 -93 -20 -9 -30 -9 -46 1 -62 39 -93 242 -43 292 23 23 40 18 67
-17z"/>
<path d="M6693 1885 c0 -22 2 -30 4 -17 2 12 2 30 0 40 -3 9 -5 -1 -4 -23z"/>
<path d="M6585 1721 c-3 -5 -1 -12 5 -16 5 -3 10 1 10 9 0 18 -6 21 -15 7z"/>
<path d="M6560 1649 c0 -5 5 -7 10 -4 6 3 10 8 10 11 0 2 -4 4 -10 4 -5 0 -10
-5 -10 -11z"/>
<path d="M6400 1324 c0 -8 5 -12 10 -9 6 4 8 11 5 16 -9 14 -15 11 -15 -7z"/>
<path d="M6385 1280 c3 -5 8 -10 11 -10 2 0 4 5 4 10 0 6 -5 10 -11 10 -5 0
-7 -4 -4 -10z"/>
<path d="M10770 1000 c0 -36 -2 -40 -25 -40 -20 0 -25 -5 -25 -24 0 -23 -4
-24 -80 -31 -44 -4 -80 -11 -80 -16 0 -5 -10 -9 -22 -9 -27 -1 -48 -16 -67
-50 -10 -17 -10 -25 -2 -28 6 -2 11 -10 11 -18 0 -8 7 -14 15 -14 8 0 15 -4
15 -10 0 -5 -7 -10 -15 -10 -8 0 -15 -5 -15 -10 0 -6 -9 -20 -20 -32 l-19 -21
-10 26 c-6 15 -15 27 -21 27 -16 0 -12 37 6 44 14 5 13 9 -3 36 -20 35 -23 36
-54 11 -19 -15 -23 -27 -20 -65 2 -40 0 -46 -18 -46 -11 0 -33 -12 -48 -27
-24 -24 -28 -26 -31 -10 -5 24 -82 25 -82 0 0 -14 -2 -14 -20 2 -20 18 -21 18
-32 -13 -7 -18 -16 -32 -20 -32 -4 0 -8 -7 -8 -15 0 -12 -16 -15 -80 -15 -73
0 -80 -2 -80 -20 0 -17 8 -20 83 -23 l82 -3 -89 -2 -89 -2 5 -50 5 -50 -76 0
c-42 -1 -89 -7 -106 -14 l-30 -14 30 -12 c17 -7 24 -14 18 -17 -15 -6 -18 -83
-3 -83 6 0 10 -4 10 -10 0 -5 -18 -10 -40 -10 -22 0 -40 5 -40 10 0 6 5 10 10
10 6 0 10 18 10 40 0 22 -4 40 -10 40 -5 0 -10 -18 -10 -40 l0 -40 -40 0 c-27
0 -40 -4 -40 -14 0 -10 -36 -16 -162 -23 -125 -7 -143 -10 -80 -11 65 -2 82
-5 82 -17 0 -8 -4 -15 -10 -15 -5 0 -10 -18 -10 -40 0 -33 -3 -40 -20 -40 -17
0 -20 7 -20 40 0 22 -4 40 -10 40 -5 0 -10 -22 -10 -50 l0 -50 -35 0 c-39 0
-84 -19 -104 -44 -12 -14 -10 -16 8 -16 18 0 21 -6 21 -40 l0 -40 305 0 305 0
0 40 c0 29 4 40 15 40 11 0 15 -11 15 -40 l0 -40 455 0 455 0 0 360 c0 233 -4
360 -10 360 -5 0 -10 18 -10 40 0 22 5 40 10 40 6 0 10 47 10 120 0 100 -2
120 -15 120 -11 0 -15 -11 -15 -40z m-50 -320 c0 -22 -4 -40 -10 -40 -5 0 -10
18 -10 40 0 22 5 40 10 40 6 0 10 -18 10 -40z m-183 -86 c8 -21 -13 -42 -28
-27 -13 13 -5 43 11 43 6 0 13 -7 17 -16z m-137 -4 c0 -5 -18 -10 -40 -10 -22
0 -40 -4 -40 -10 0 -5 -18 -10 -40 -10 -22 0 -40 5 -40 10 0 6 18 10 40 10 22
0 40 5 40 10 0 6 18 10 40 10 22 0 40 -4 40 -10z m-240 -315 c0 -11 11 -15 40
-15 22 0 40 -4 40 -10 0 -6 -33 -10 -80 -10 -79 0 -80 0 -80 25 0 23 4 25 40
25 29 0 40 -4 40 -15z m-480 -25 c0 -5 -18 -10 -40 -10 -22 0 -40 5 -40 10 0
6 18 10 40 10 22 0 40 -4 40 -10z m320 0 c0 -5 -18 -10 -40 -10 -22 0 -40 5
-40 10 0 6 18 10 40 10 22 0 40 -4 40 -10z m-400 -106 c0 -10 -7 -14 -22 -12
-32 5 -35 28 -4 28 17 0 26 -5 26 -16z"/>
<path d="M10560 930 c0 -5 18 -10 40 -10 22 0 40 5 40 10 0 6 -18 10 -40 10
-22 0 -40 -4 -40 -10z"/>
<path d="M8421 804 c0 -11 3 -14 6 -6 3 7 2 16 -1 19 -3 4 -6 -2 -5 -13z"/>
<path d="M8421 714 c0 -11 3 -14 6 -6 3 7 2 16 -1 19 -3 4 -6 -2 -5 -13z"/>
<path d="M9860 520 c0 -22 5 -40 10 -40 6 0 10 18 10 40 0 22 -4 40 -10 40 -5
0 -10 -18 -10 -40z"/>
<path d="M8461 434 c0 -11 3 -14 6 -6 3 7 2 16 -1 19 -3 4 -6 -2 -5 -13z"/>
<path d="M9585 420 c-16 -18 -16 -20 -2 -20 10 0 17 6 17 14 0 10 14 16 43 19
l42 4 -41 1 c-30 2 -46 -3 -59 -18z"/>
<path d="M2905 321 c-3 -5 -1 -12 5 -16 5 -3 10 1 10 9 0 18 -6 21 -15 7z"/>
<path d="M8489 294 c-12 -24 -7 -54 10 -54 5 0 11 12 13 28 2 15 8 26 15 25 6
-1 14 4 17 12 9 24 -41 14 -55 -11z"/>
<path d="M8579 202 c-1 -26 0 -60 1 -77 1 -16 3 -41 3 -55 1 -14 -3 -24 -9
-23 -7 1 -14 -9 -17 -22 -3 -19 0 -25 14 -25 14 0 19 7 19 25 0 14 4 25 10 25
5 0 12 -11 16 -25 10 -41 34 -31 34 15 0 31 4 40 17 40 15 0 15 1 0 18 -10 10
-17 24 -17 32 0 10 -3 10 -14 0 -11 -8 -12 -18 -6 -35 7 -19 6 -23 -5 -18 -15
5 -21 51 -16 124 1 25 -3 38 -13 42 -13 5 -16 -2 -17 -41z"/>
<path d="M8627 243 c-2 -5 -1 -19 4 -33 7 -23 7 -23 8 8 1 31 -3 40 -12 25z"/>
<path d="M2991 214 c0 -11 3 -14 6 -6 3 7 2 16 -1 19 -3 4 -6 -2 -5 -13z"/>
<path d="M8540 171 c0 -17 5 -31 10 -31 6 0 10 11 10 24 0 14 -4 28 -10 31 -6
4 -10 -7 -10 -24z"/>
<path d="M8514 93 c3 -21 6 -50 6 -65 0 -16 5 -28 10 -28 6 0 10 12 10 28 0
48 -12 102 -23 102 -6 0 -7 -15 -3 -37z"/>
<path d="M8720 40 l0 -40 120 0 c100 0 120 3 120 15 0 12 -18 15 -100 15 -97
0 -101 1 -112 25 -17 37 -28 31 -28 -15z"/>
</g>
</svg>
